<?xml version="1.0" encoding="UTF-8"?>
<svg id="Capa_1" data-name="Capa 1" xmlns="http://www.w3.org/2000/svg" viewBox="0 0 272.64 185.04">
  <defs>
    <style>
      .cls-1 {
        fill: #c8d6cd;
      }

      .cls-1, .cls-2 {
        stroke-width: 0px;
      }

      .cls-2 {
        fill: #fefefe;
      }
    </style>
  </defs>
  <path class="cls-2" d="M.02,140.69C.02,94.16.03,47.63,0,1.1,0,.2.2,0,1.1,0c45.11.03,90.23.02,135.34.02-.42.76-1.31,1.01-1.81,1.7-4.18,5.74-8.38,11.46-12.56,17.2-3.24,4.46-6.47,8.93-9.67,13.42-3.06,4.28-5.65,8.82-7.44,13.79-1.62,4.5-2.11,9.18-2.3,13.9-.12,3.06-.14,6.13-.22,9.19-.21,8.18.15,16.36-.2,24.53-.01.28.08.44.26.61.6.58,1.32.2,1.78-.88,1.61-3.73,3.55-7.3,5.63-10.79,2-3.35,4.2-6.55,6.73-9.52,2.04-2.39,4.14-4.74,6.62-6.7,1.56-1.23,1.95-2.87,1.51-4.69-.83-3.47-2.58-6.58-4.07-9.78-1.68-3.62-2.95-7.35-3.65-11.28-.07-.37-.18-.77.39-.96.54-.18.6.2.76.5,3.52,6.55,7.05,13.1,10.55,19.67,1.17,2.19,1.48,2.29,3.35.58.29-.26.52-.6.76-.91,1.5-1.95,1.66-4.33,2.12-6.61.33-1.59.45-3.23,1.23-4.97.13.41.17.55.21.69.85,3.14,1.66,6.3,3.1,9.24.47.97,1.02,1.91,1.8,2.65,1.06,1,1.2.94,1.86-.3.22-.42.5-.81.73-1.23,3.57-6.57,7.14-13.14,10.72-19.71.16-.29.15-.88.79-.61.5.21.48.62.38,1.01-.41,1.69-.74,3.42-1.3,5.06-1.77,5.12-4.11,10-6.47,14.86-1.2,2.47-1.21,4.69.77,6.8.54.57,1.08,1.17,1.57,1.79,3.11,3.96,6.29,7.87,9.27,11.93,2.58,3.51,5.48,6.82,7.32,10.84.56,1.23,1.07,2.48,1.63,3.71.13.29.21.72.76.5.41-.17.87-.23.87-.81,0-.32,0-.64,0-.96.13-4.5-.04-9,.18-13.51.27-5.4.01-10.82-.38-16.23-.31-4.24-.81-8.43-1.72-12.57-.85-3.86-2.01-7.64-3.97-11.06-3.82-6.65-8.06-13.03-12.51-19.28-2.83-3.98-5.72-7.91-8.51-11.91-2.06-2.96-4.29-5.81-6.18-8.89C181.95.02,226.74.03,271.54,0c.9,0,1.1.2,1.1,1.1-.03,46.45-.02,92.9-.02,139.35-.31.07-.62.11-.92.21-8.5,2.77-17,5.54-25.5,8.32-4.99,1.63-9.97,3.27-14.96,4.89-.28.09-.61.41-.88.12-.28-.3.08-.58.2-.84,2.32-4.81,3.74-9.9,4.12-15.18.36-4.91.05-9.83-1.07-14.69-1.19-5.21-2.93-10.22-5-15.13-.7-1.66-1.27-3.4-2.37-5.09-.81,3.2-1.45,6.24-2.25,9.24-1.78,6.68-4.13,13.11-7.62,19.1-3.47,5.97-8.02,10.95-13.75,14.81-4.73,3.19-9.77,5.83-14.96,8.17-4.13,1.86-8.35,3.5-12.74,4.69-1.38.37-2.81.58-4.22.87.85-1.02,1.81-1.77,2.68-2.62,2.46-2.38,4.75-4.93,7.04-7.47,3.01-3.34,5.74-6.88,8.19-10.65,2.61-4.03,4.69-8.31,6.19-12.86,1.82-5.51,2.45-11.2,2.55-16.98.03-1.92-.29-3.81-.27-5.72.04-3.06-.36-6.1-.78-9.12-.68-4.98-1.68-9.9-3-14.76-1.93-7.12-4.5-13.98-7.67-20.63-2.98-6.25-6.69-12.12-9.93-18.23-.16-.31-.29-.73-.78-.53-.36.15-.79.27-.83.77-.03.36-.02.72-.02,1.08,0,23.8,0,47.6,0,71.4,0,.24.02.48,0,.72-.09.78.55.89,1.03,1.11.51.24.85.03,1.18-.45,3.63-5.16,7.28-10.31,10.96-15.43.59-.82,1.03-1.8,2-2.51-.1,1.64-.69,2.93-1.26,4.23-2.45,5.53-6.38,10.03-10.26,14.57-2.92,3.41-5.91,6.75-8.75,10.22-5.2,6.36-10,13.03-14.48,19.92-2.56,3.93-5.17,7.84-7.75,11.75-.09-.09-.17-.17-.26-.26.12-.46.2-.93.35-1.38,2.02-5.94,4.96-11.46,7.7-17.07,1.36-2.78,2.6-5.6,3.81-8.45,2.95-6.96,3.54-14.21,2.72-21.61-.47-4.22-1.61-8.32-3.09-12.31-.53-1.43-1.15-2.83-1.72-4.24h-.26c-3.2,11.12-6.4,22.24-9.61,33.42-.49-.31-.53-.65-.61-1.01-1.33-6.19-2.68-12.37-4.02-18.56-1.23-5.69-2.43-11.38-3.67-17.06-.08-.38.09-1.13-.64-1-.69.12-1.64-.47-2.01.73-.41,1.32-.97,2.6-1.44,3.91-1.96,5.54-3.45,11.21-4.47,17-.77,4.37-1.36,8.76-1.51,13.21-.04,1.26-.24,2.53-.21,3.8,0,.35-.06.64-.5.65-.35.01-.61-.04-.72-.45-.17-.65-.38-1.29-.57-1.94-1.49-5.02-2.97-10.04-4.46-15.06-1.62-5.44-3.24-10.87-4.89-16.3-.09-.3-.01-.83-.5-.83-.36,0-.4.46-.54.73-2.05,3.81-3.32,7.89-4.08,12.14-.5,2.78-.68,5.6-.68,8.4,0,1.8.17,3.63.38,5.45.36,3.21,1.05,6.33,2.13,9.36,1.75,4.92,4.29,9.49,6.51,14.21,1.8,3.82,3.76,7.57,5.64,11.35.19.39.57.78.21,1.35-.37-.29-.63-.61-.88-.98-2.49-3.68-4.95-7.39-7.52-11.02-5.46-7.71-11.11-15.26-17.09-22.57-3.39-4.15-6.77-8.32-10.45-12.2-2.95-3.11-4.44-6.93-6.21-10.64-.13-.28-.3-.66.09-.82.33-.13.41.27.57.48,4.44,5.97,8.89,11.94,13.33,17.91.78-.45,1-1.15,1-2.08-.02-24.2-.02-48.4-.02-72.6,0-.38.12-.78-.1-1.15-1.44.42-1.45.41-1.8,1-4.51,7.56-8.7,15.28-12.07,23.42-1.9,4.59-3.62,9.24-4.98,14.02-1.6,5.65-2.86,11.35-3.65,17.18-.42,3.11-.71,6.22-.85,9.34-.23,4.93.23,9.83,1.15,14.69,1.57,8.26,4.89,15.76,9.96,22.45,3.8,5.01,8.13,9.58,12.56,14.04,1.05,1.06,2.01,2.22,3.06,3.38-.37.13-.62.06-.89-.02-2.02-.58-4.06-1.09-6.06-1.73-8.72-2.77-17.04-6.4-24.53-11.76-4.07-2.91-7.72-6.26-10.92-10.09-3.2-3.83-5.76-8.1-7.81-12.64-1.7-3.77-2.97-7.69-3.93-11.72-.6-2.52-.96-5.08-1.5-7.64-.44.23-.5.61-.65.92-1.17,2.48-2.3,4.98-3.31,7.53-3.18,8.08-5.11,16.34-4.11,25.11.6,5.2,2.21,10.05,4.74,14.61.2.36.67.72.22,1.28-.45.55-.91.46-1.48.27-6.53-2.14-13.07-4.26-19.61-6.39-6.42-2.1-12.83-4.23-19.27-6.3-.86-.28-1.72-.86-2.72-.49Z"/>
  <path class="cls-1" d="M.02,140.69c1-.36,1.85.22,2.72.49,6.43,2.07,12.84,4.2,19.27,6.3,6.53,2.14,13.07,4.25,19.61,6.39.58.19,1.03.28,1.48-.27.45-.55-.02-.92-.22-1.28-2.53-4.56-4.15-9.41-4.74-14.61-1-8.77.93-17.04,4.11-25.11,1.01-2.55,2.14-5.05,3.31-7.53.15-.31.21-.69.65-.92.54,2.56.9,5.12,1.5,7.64.96,4.03,2.23,7.95,3.93,11.72,2.05,4.55,4.61,8.81,7.81,12.64,3.2,3.83,6.86,7.18,10.92,10.09,7.49,5.36,15.8,8.99,24.53,11.76,2,.64,4.04,1.14,6.06,1.73.27.08.52.14.89.02-1.05-1.16-2.01-2.32-3.06-3.38-4.43-4.46-8.76-9.03-12.56-14.04-5.07-6.69-8.39-14.19-9.96-22.45-.92-4.86-1.38-9.76-1.15-14.69.14-3.12.43-6.23.85-9.34.79-5.82,2.05-11.53,3.65-17.18,1.36-4.78,3.08-9.43,4.98-14.02,3.37-8.14,7.55-15.87,12.07-23.42.35-.59.36-.58,1.8-1,.22.36.1.77.1,1.15,0,24.2,0,48.4.02,72.6,0,.93-.22,1.63-1,2.08-4.45-5.97-8.89-11.94-13.33-17.91-.16-.21-.24-.62-.57-.48-.39.16-.22.55-.09.82,1.77,3.72,3.26,7.53,6.21,10.64,3.68,3.88,7.06,8.05,10.45,12.2,5.98,7.31,11.63,14.86,17.09,22.57,2.57,3.63,5.02,7.34,7.52,11.02.25.37.51.69.88.98.36-.57-.02-.96-.21-1.35-1.88-3.79-3.84-7.53-5.64-11.35-2.22-4.71-4.76-9.28-6.51-14.21-1.08-3.03-1.77-6.15-2.13-9.36-.21-1.82-.37-3.65-.38-5.45,0-2.8.18-5.63.68-8.4.76-4.25,2.03-8.33,4.08-12.14.14-.27.19-.72.54-.73.49,0,.41.53.5.83,1.65,5.43,3.27,10.86,4.89,16.3,1.49,5.02,2.98,10.04,4.46,15.06.19.65.41,1.29.57,1.94.1.41.37.46.72.45.44-.02.51-.3.5-.65-.03-1.27.17-2.54.21-3.8.16-4.45.74-8.84,1.51-13.21,1.02-5.78,2.51-11.46,4.47-17,.46-1.31,1.02-2.59,1.44-3.91.37-1.2,1.33-.6,2.01-.73.73-.13.56.62.64,1,1.24,5.68,2.44,11.38,3.67,17.06,1.33,6.19,2.68,12.37,4.02,18.56.08.35.12.7.61,1.01,3.22-11.18,6.41-22.3,9.61-33.42h.26c.58,1.41,1.19,2.8,1.72,4.23,1.47,3.99,2.62,8.09,3.09,12.31.82,7.4.23,14.65-2.72,21.61-1.21,2.85-2.46,5.67-3.81,8.45-2.74,5.61-5.68,11.13-7.7,17.07-.15.45-.24.92-.35,1.38-.26.24-.37.6-.07.77.22.12.29-.28.33-.51,2.59-3.92,5.19-7.82,7.75-11.75,4.49-6.89,9.28-13.55,14.48-19.92,2.84-3.47,5.83-6.82,8.75-10.22,3.88-4.53,7.81-9.03,10.26-14.57.57-1.29,1.16-2.59,1.26-4.23-.98.71-1.41,1.69-2,2.51-3.68,5.12-7.33,10.27-10.96,15.43-.34.48-.67.69-1.18.45-.48-.22-1.12-.33-1.03-1.11.03-.24,0-.48,0-.72,0-23.8,0-47.6,0-71.4,0-.36,0-.72.02-1.08.04-.49.46-.62.83-.77.48-.2.61.22.78.53,3.25,6.11,6.96,11.97,9.93,18.23,3.16,6.65,5.74,13.51,7.67,20.63,1.32,4.86,2.32,9.78,3,14.76.41,3.02.82,6.06.78,9.12-.02,1.91.3,3.8.27,5.72-.1,5.78-.74,11.47-2.55,16.98-1.5,4.55-3.58,8.84-6.19,12.86-2.44,3.77-5.18,7.31-8.19,10.65-2.29,2.54-4.58,5.09-7.04,7.47-.87.84-1.83,1.6-2.68,2.62,1.41-.28,2.84-.49,4.22-.87,4.38-1.19,8.61-2.83,12.74-4.69,5.19-2.34,10.23-4.98,14.96-8.17,5.74-3.86,10.28-8.84,13.75-14.81,3.49-5.99,5.83-12.42,7.62-19.1.8-3,1.44-6.04,2.25-9.24,1.1,1.69,1.67,3.43,2.37,5.09,2.07,4.91,3.8,9.92,5,15.13,1.11,4.85,1.42,9.77,1.07,14.69-.39,5.29-1.8,10.38-4.12,15.18-.13.26-.48.55-.2.84.28.29.6-.03.88-.12,4.99-1.62,9.97-3.26,14.96-4.89,8.5-2.78,17-5.55,25.5-8.32.3-.1.61-.14.92-.21v.96c-.28.11-.41.35-.54.61-2.98,5.85-6.35,11.46-10.46,16.61-2.89,3.62-6.08,6.96-9.62,9.93-4.62,3.88-9.78,6.92-15.34,9.29-6.45,2.76-13.25,4.05-20.13,5-2.94.4-5.89.73-8.85,1.04-3.75.4-7.51.86-11.26.85-24.32-.06-48.64.33-72.96-.19-7.26-.16-14.52.15-21.78-.2-6.73-.32-13.48.04-20.22-.23-6.99-.28-14.01.17-20.99-.75-3.89-.51-7.74-1.17-11.59-1.94-5.36-1.06-10.57-2.58-15.51-4.91-7.95-3.75-14.75-9.01-20.52-15.66-4.29-4.95-7.91-10.33-11.05-16.06-.54-.99-.88-2.14-1.78-2.92v-1.2Z"/>
  <path class="cls-1" d="M137.16.02c1.89,3.08,4.12,5.93,6.18,8.89,2.79,4,5.68,7.94,8.51,11.91,4.44,6.25,8.69,12.64,12.51,19.28,1.97,3.42,3.13,7.2,3.97,11.06.91,4.15,1.41,8.34,1.72,12.57.39,5.41.64,10.83.38,16.23-.22,4.51-.05,9.01-.18,13.51,0,.32,0,.64,0,.96,0,.59-.46.64-.87.81-.55.23-.63-.21-.76-.5-.56-1.23-1.07-2.48-1.63-3.71-1.84-4.02-4.74-7.33-7.32-10.84-2.97-4.06-6.16-7.97-9.27-11.93-.49-.62-1.03-1.22-1.57-1.79-1.98-2.1-1.97-4.33-.77-6.8,2.36-4.86,4.7-9.74,6.47-14.86.57-1.64.89-3.37,1.3-5.06.09-.39.11-.8-.38-1.01-.64-.27-.63.32-.79.61-3.58,6.56-7.15,13.14-10.72,19.71-.23.42-.51.81-.73,1.23-.66,1.24-.8,1.3-1.86.3-.79-.74-1.33-1.68-1.8-2.65-1.44-2.94-2.25-6.1-3.1-9.24-.04-.14-.09-.28-.21-.69-.78,1.75-.9,3.39-1.23,4.97-.47,2.28-.63,4.66-2.12,6.61-.24.31-.47.65-.76.91-1.88,1.71-2.19,1.62-3.35-.58-3.49-6.57-7.03-13.12-10.55-19.67-.16-.29-.22-.68-.76-.5-.58.19-.46.6-.39.96.7,3.93,1.96,7.66,3.65,11.28,1.49,3.2,3.24,6.31,4.07,9.78.44,1.82.05,3.46-1.51,4.69-2.48,1.96-4.58,4.31-6.62,6.7-2.53,2.96-4.73,6.17-6.73,9.52-2.08,3.49-4.02,7.05-5.63,10.79-.46,1.07-1.19,1.46-1.78.88-.18-.17-.28-.33-.26-.61.34-8.18-.02-16.36.2-24.53.08-3.06.09-6.13.22-9.19.19-4.72.67-9.4,2.3-13.9,1.8-4.98,4.38-9.51,7.44-13.79,3.21-4.48,6.43-8.96,9.67-13.42,4.18-5.74,8.38-11.46,12.56-17.2.5-.69,1.39-.95,1.81-1.7h.72Z"/>
  <path class="cls-2" d="M.02,141.88c.9.78,1.24,1.93,1.78,2.92,3.14,5.73,6.76,11.11,11.05,16.06,5.77,6.65,12.57,11.91,20.52,15.66,4.94,2.33,10.15,3.85,15.51,4.91,3.84.76,7.7,1.42,11.59,1.94,6.98.92,14,.46,20.99.75,6.74.27,13.49-.09,20.22.23,7.26.35,14.52.04,21.78.2,24.32.53,48.64.14,72.96.19,3.75,0,7.51-.45,11.26-.85,2.95-.31,5.91-.64,8.85-1.04,6.88-.95,13.68-2.24,20.13-5,5.56-2.38,10.72-5.41,15.34-9.29,3.54-2.97,6.73-6.31,9.62-9.93,4.11-5.15,7.48-10.75,10.46-16.61.13-.26.25-.5.54-.61,0,14.22,0,28.44.02,42.65,0,.82-.16.98-.98.98-90.23-.02-180.45-.02-270.68,0-.82,0-.98-.16-.98-.98.03-14.06.02-28.12.02-42.18Z"/>
  <path class="cls-2" d="M146.76,157.71c-.04.23-.11.62-.33.51-.3-.16-.19-.53.07-.77.09.09.17.17.26.26Z"/>
</svg>